<svg width="124" height="188" viewBox="0 0 124 188" fill="none" xmlns="http://www.w3.org/2000/svg">
<circle cx="88" cy="62" r="10" fill="#D9D9D9"/>
<circle cx="10" cy="91" r="10" fill="#D9D9D9"/>
<circle cx="114" cy="62" r="10" fill="#D9D9D9"/>
<path d="M46 62C46 67.5228 41.5228 72 36 72C30.4772 72 26 67.5228 26 62C26 56.4772 30.4772 52 36 52C41.5228 52 46 56.4772 46 62Z" fill="#D9D9D9"/>
<circle cx="114" cy="91" r="10" fill="#D9D9D9"/>
<circle cx="10" cy="62" r="10" fill="#D9D9D9"/>
<circle cx="10" cy="62" r="10" fill="#D9D9D9"/>
<circle cx="62" cy="10" r="10" fill="#D9D9D9"/>
<circle cx="88" cy="10" r="10" fill="#D9D9D9"/>
<circle cx="88" cy="36" r="10" fill="#D9D9D9"/>
<circle cx="36" cy="10" r="10" fill="#D9D9D9"/>
<circle cx="36" cy="37" r="10" fill="#D9D9D9"/>
<circle cx="10" cy="149" r="10" fill="#D9D9D9"/>
<circle cx="114" cy="120" r="10" fill="#D9D9D9"/>
<circle cx="114" cy="149" r="10" fill="#D9D9D9"/>
<circle cx="10" cy="120" r="10" fill="#D9D9D9"/>
<circle cx="62" cy="178" r="10" fill="#D9D9D9"/>
<circle cx="114" cy="178" r="10" fill="#D9D9D9"/>
<circle cx="88" cy="178" r="10" fill="#D9D9D9"/>
<circle cx="36" cy="178" r="10" fill="#D9D9D9"/>
<circle cx="10" cy="178" r="10" fill="#D9D9D9"/>
</svg>
